<svg id="Layer_1" data-name="Layer 1" xmlns="http://www.w3.org/2000/svg" viewBox="0 0 60.83 24"><title>logo</title><path d="M5.26,12.76a29.87,29.87,0,0,1,11.45-2,21.86,21.86,0,0,1,6.61,1l2.32-2.42,2.44-2.54a43.17,43.17,0,0,1,4.26-4A8.59,8.59,0,0,1,37.45.73a5.31,5.31,0,0,1,1.91.33,3.47,3.47,0,0,1,1,.52.89.89,0,0,1,.17.22.22.22,0,0,1-.06.1s-.1,0-.17-.07a3.2,3.2,0,0,0-2.15-.52,9.35,9.35,0,0,0-5.68,2.35A44.37,44.37,0,0,0,29,6.83q-1.42,1.44-3,3T23.88,12q2.9,1.07,3.16,2.81a.33.33,0,0,1,0,.23s-.07,0-.12,0a.31.31,0,0,1-.1-.17q-.23-.55-1.62-.87a21.19,21.19,0,0,0-2.87-.43q-5.89,5.68-10.41,7.22a14,14,0,0,1-4.67.87q-3.94,0-5.47-1.17a3.3,3.3,0,0,1-1.52-2.6,3.42,3.42,0,0,1,.2-1.13Q1.32,14.42,5.26,12.76Zm14.53.73a43.47,43.47,0,0,0-8.12.81q-6.55,1.16-8.53,3.45a2.18,2.18,0,0,0-.61,1.36,1.71,1.71,0,0,0,.81,1.36,5.68,5.68,0,0,0,3.32.72,18.79,18.79,0,0,0,5.12-.78q4.12-1.28,9.8-6.87Q20.69,13.49,19.79,13.49Zm9.6,9.43a.11.11,0,0,1,.06.12c0,.13-.12.16-.23.09a5.94,5.94,0,0,1-2.52-5.19,9.17,9.17,0,0,1,.57-3,19.46,19.46,0,0,1,2-3.87,40.52,40.52,0,0,1,2.81-3.92Q33.45,5.46,34.71,4T36,2.47q.35-.52.46.12a3.43,3.43,0,0,1,0,.46.78.78,0,0,1-.15.46,43.21,43.21,0,0,0-3.48,5,41.1,41.1,0,0,0-4,8.56,11,11,0,0,0-.46,3.19A3.67,3.67,0,0,0,29.39,22.92Z"/><path d="M39.31,19a7.55,7.55,0,0,0-.55,2.46,2.24,2.24,0,0,0,.41,1.45c.06.08.07.13,0,.16l-.09,0-.09,0a2.73,2.73,0,0,1-.93-2.25,11.68,11.68,0,0,1,.61-3.44,16.78,16.78,0,0,1-2.35,2.52,4.43,4.43,0,0,1-2.84,1.16,2.81,2.81,0,0,1-1.74-.62,2.42,2.42,0,0,1-.81-2,4.64,4.64,0,0,1,.26-1.59c-.39.35-.63.56-.74.64s-.18.08-.22,0a.49.49,0,0,1-.06-.22c0-.07.06-.16.19-.26s.8-.82,2-2.13A7.61,7.61,0,0,1,35,13a6.85,6.85,0,0,1,2.81-.67,3,3,0,0,1,1.78.42,1.27,1.27,0,0,1,.57,1.06,46.64,46.64,0,0,1,2.25-4.19,21,21,0,0,1,1.87-2.74,2.34,2.34,0,0,1,1.83-.81,2.63,2.63,0,0,1,1.8.61,15,15,0,0,0-2.38,2.49Q43.72,11.29,42,13.71A23,23,0,0,0,39.31,19Zm.23-5.48q0-.58-.72-.58a3,3,0,0,0-1,.23,7.14,7.14,0,0,0-2.7,2,5.6,5.6,0,0,0-1.65,3.6q0,1,.67,1.22a.78.78,0,0,0,.29.06q1.19,0,3.54-2.38A6.78,6.78,0,0,0,39,16.39q.23-.67.61-1.54-.26.17-.42,0t.07-.58A1.78,1.78,0,0,0,39.54,13.52Z"/><path d="M47.81,13a9.94,9.94,0,0,0-2,3.09,8.15,8.15,0,0,0-.8,2.63q0,.75.59.75a4.61,4.61,0,0,0,2-.87,24.12,24.12,0,0,0,3.15-2.46q.38-.35.38.09a.17.17,0,0,1-.06.12q-1.39,1.22-2.35,2a14.34,14.34,0,0,1-2.28,1.49,4.87,4.87,0,0,1-2.16.71,2.24,2.24,0,0,1-1.55-.46,1.36,1.36,0,0,1-.51-1,3.12,3.12,0,0,1,.38-1.65,16,16,0,0,1,1.28-1.68q-.32.26-1,.87t-.94.81c-.17.13-.26.1-.26-.12s.15-.33.46-.58,1-.89,2-1.91A12,12,0,0,1,46.25,13a2.17,2.17,0,0,1,.93-.29,1.1,1.1,0,0,1,.54.1C47.83,12.88,47.86,12.95,47.81,13Zm.38-1.54a.79.79,0,0,1-.26-.75,2,2,0,0,1,.52-1,1.54,1.54,0,0,1,1.25-.55.79.79,0,0,1,.49.22.77.77,0,0,1,.2.73,1.71,1.71,0,0,1-.46,1,1.85,1.85,0,0,1-.91.58A.89.89,0,0,1,48.18,11.49Z"/><path d="M55.4,10.39l1-1.52A9.28,9.28,0,0,1,57.06,8a2.12,2.12,0,0,1,1-.45,6.93,6.93,0,0,1,1.57-.19c.5,0,.75.05.75.16a6.36,6.36,0,0,1-1.25,1.35,39.65,39.65,0,0,0-2.9,3.16,3.65,3.65,0,0,1,2.58,1.25q.23.41.07.52t-.36-.09a2.66,2.66,0,0,0-1.94-.61,8.47,8.47,0,0,0-1.31.12,17.56,17.56,0,0,0-3,4.93,2.78,2.78,0,0,0-.2.93q0,1,.84,1a4.85,4.85,0,0,0,2.52-1.25,34.85,34.85,0,0,0,3.68-3.16q.29-.32.38-.15t-.15.38a33.39,33.39,0,0,1-4.19,3.84A5.45,5.45,0,0,1,52.13,21Q50.18,21,50.18,19a6.46,6.46,0,0,1,.55-2.35l-.52.49c-.16.16-.27.2-.33.13a.29.29,0,0,1-.1-.19c0-.06.08-.16.23-.29A27.69,27.69,0,0,0,52.91,14q-.55.2-.74,0a.91.91,0,0,1-.26-.46q-.07-.29.29-.71a2.07,2.07,0,0,1,1.07-.61A6.78,6.78,0,0,1,54.33,12Z"/></svg>